<svg width="206" height="132" fill="none" xmlns="http://www.w3.org/2000/svg">
  <g fill="#917151">
    <path d="M59.655 120.399c4.876-7.604-10.502-14.208-10.502-14.208-.38 16.391 10.502 14.208 10.502 14.208Z"/>
    <path d="M37.857 125.526c13.69 9.602 18.018-.337 18.018-.337-3.724-8.244-18.018.337-18.018.337ZM41.559 111.264c7.27-5.584-4.888-16.837-4.888-16.837-6.106 15.294 4.888 16.837 4.888 16.837ZM20.577 112.393c11.464 12.047 17.727 3.129 17.727 3.129-1.98-8.766-17.727-3.129-17.727-3.129ZM28.652 100.901c8.825-2.737 1.544-17.38 1.544-17.38-11.274 12.166-1.544 17.38-1.544 17.38ZM9.203 94.872c6.353 15.208 15.445 8.994 15.445 8.994 1.354-8.896-15.445-8.994-15.445-8.994ZM19.19 88.138c9.239-.76 5.48-16.663 5.48-16.663-13.778 9.483-5.48 16.663-5.48 16.663ZM16.305 71.67c9.596.641 8.6-15.653 8.6-15.653-15.814 7.29-8.6 15.653-8.6 15.653ZM8.487 72.398c6.599-6.517-7.695-15.99-7.695-15.99-3.87 15.98 7.695 15.99 7.695 15.99ZM28.428 40.137c-17.212 3.03-12.515 12.926-12.515 12.926 9.104 3.052 12.515-12.926 12.515-12.926ZM10.041 53.4c6.868-6.268-7.034-16.294-7.034-16.294C-1.512 52.943 10.04 53.4 10.04 53.4ZM19.291 38.04c8.265 4.79 14.965-10.178 14.965-10.178C16.74 27.46 19.29 38.04 19.29 38.04ZM13.766 35.922c8.03-4.78-3.467-17.38-3.467-17.38-7.74 14.643 3.467 17.38 3.467 17.38ZM42.71 16.945c-17.122-3.606-16.664 7.256-16.664 7.256 7.192 6.225 16.665-7.256 16.665-7.256ZM21.002 21.442c8.813-3.258-.056-17.651-.056-17.651-10.424 12.926.056 17.651.056 17.651Z"/>
    <path d="M15.31 80.186C5.78 50.021 26.157 19.053 31.123 12.133 41.324 13.893 43.292 0 43.292 0 28.81.945 29.256 8.994 29.682 11.254a111.627 111.627 0 0 0-11.588 20.638c-5.2 12.188-10.177 30.523-4.418 48.794.358 1.086.761 2.238 1.186 3.346-2.55-5.182-12.884-7.539-12.884-7.539 2.718 16.185 13.007 12.1 13.007 12.1a5.507 5.507 0 0 0 .269-3.584c8.432 20.519 29.504 36.313 62.721 46.991l.537-1.564c-34.962-11.265-56.224-28.156-63.203-50.25ZM156.847 106.191s-15.379 6.517-10.503 14.208c-.011 0 10.872 2.183 10.503-14.208Z"/>
    <path d="M150.125 125.222s4.317 9.939 18.018.337c-.012-.033-14.294-8.614-18.018-.337ZM164.441 111.264s10.994-1.543 4.887-16.837c0 0-12.157 11.243-4.887 16.837ZM167.707 115.522s6.263 8.918 17.727-3.129c-.012 0-15.77-5.637-17.727 3.129ZM177.347 100.901s9.731-5.214-1.543-17.38c0-.054-7.281 14.643 1.543 17.38ZM181.351 103.877s9.093 6.203 15.446-8.994c0-.01-16.799.087-15.446 8.994ZM186.809 88.138s8.299-7.18-5.48-16.663c0 0-3.758 15.902 5.48 16.663Z"/>
    <path d="M191.126 83.999a45.57 45.57 0 0 0 1.186-3.346c5.76-18.238.783-36.573-4.407-48.74a111.566 111.566 0 0 0-11.587-20.638c.414-2.26.862-10.297-13.611-11.253 0 0 1.98 13.904 12.169 12.133 4.965 6.92 25.343 37.888 15.814 68.053-6.979 22.094-28.24 38.985-63.202 50.217l.537 1.564c33.217-10.678 54.288-26.472 62.721-46.99a5.502 5.502 0 0 0 .269 3.584s10.289 4.084 13.007-12.1c0-.023-10.346 2.335-12.896 7.516Z"/>
    <path d="M181.083 56.017s-.996 16.294 8.601 15.653c.011 0 7.191-8.364-8.601-15.653ZM197.513 72.398s11.564 0 7.694-15.99c0 0-14.293 9.462-7.694 15.99ZM177.56 40.137s3.411 15.978 12.515 12.926c0 0 4.72-9.896-12.515-12.926ZM195.958 53.4s11.553-.457 7.035-16.294c0 .01-13.947 10.026-7.035 16.294ZM171.744 27.862s6.711 14.969 14.965 10.178c0 0 2.55-10.58-14.965-10.178ZM192.223 35.922s11.184-2.737 3.467-17.38c0 .054-11.498 12.6-3.467 17.38ZM163.322 16.945s9.473 13.48 16.665 7.267c-.034-.01.414-10.873-16.665-7.267ZM184.986 21.442s10.48-4.725.056-17.651c.011 0-8.869 14.425-.056 17.651Z"/>
  </g>
</svg>
