<svg aria-hidden="true" style="position:absolute;width:0;height:0;overflow:hidden" xmlns="http://www.w3.org/2000/svg">
  <defs>
  <symbol id="icon-MOVIE" viewBox="0 0 147 32">
<path d="M36.049 30.609h-8.974l-0.083-13.315-6.344 10.685h-4.341l-6.344-10.226v12.856h-8.974v-29.217h8.097l9.517 15.569 9.266-15.569h8.097l0.083 29.217zM56.129 31.277c-9.517 0-16.487-6.428-16.487-15.277s6.97-15.277 16.487-15.277c9.517 0 16.487 6.428 16.487 15.277s-6.97 15.277-16.487 15.277zM56.129 23.304c3.631 0 6.553-2.755 6.553-7.304s-2.922-7.304-6.553-7.304c-3.631 0-6.553 2.755-6.553 7.304s2.922 7.304 6.553 7.304zM96.669 1.391h9.683l-12.355 29.217h-9.683l-12.355-29.217h10.602l6.97 17.071 7.137-17.071zM107.333 30.609v-29.217h9.85v29.217h-9.85zM131.609 23.179h14.609v7.43h-24.292v-29.217h23.75v7.43h-14.066v3.423h12.355v7.096h-12.355v3.84z"></path>
</symbol>
<symbol id="icon-mx" viewBox="0 0 78 32">
<path d="M38.903 0h3.931l-6.4 32h-4.389l4.663-23.131-15.131 19.246h-2.103l-8-19.703-4.709 23.589h-4.389l6.4-32h3.703l8.914 22.537 17.509-22.537zM77.032 0l-14.629 15.68 8.96 16.32h-4.891l-7.086-13.074-12.023 13.074h-5.486l15.543-16.64-8.411-15.36h4.8l6.629 12.206 11.383-12.206h5.211z"></path>
</symbol>
    <symbol id="icon-Vector-1" viewBox="0 0 165 32">
      <path stroke-linecap="round" stroke-width="3.793" d="m2.743 24.277 9.746-4.12a189.548 189.548 0 0 1 137.56-3.918 1.264 1.264 0 0 0 1.639-.839l3.333-11.518c.757-2.612 4.539-2.353 4.932.338l2.442 16.743a2.53 2.53 0 0 1-1.652 2.747l-15.751 5.625"/>
    </symbol>
    <symbol id="icon-Email" viewBox="0 0 40 32">
      <path d="M40 4c0-2.2-1.8-4-4-4H4C1.8 0 0 1.8 0 4v24c0 2.2 1.8 4 4 4h32c2.2 0 4-1.8 4-4V4zm-4 0L20 14 4 4h32zm0 24H4V8l16 10L36 8v20z"/>
    </symbol>
    <symbol id="icon-Phone" viewBox="0 0 32 32">
      <path d="M30.2 32c-4.16 0-8.073-.787-11.74-2.36s-6.867-3.727-9.599-6.461c-2.733-2.733-4.892-5.933-6.479-9.6S.002 5.986.003 1.801c-.027-.48.133-.9.48-1.261s.773-.541 1.28-.541h6.239c.48 0 .893.18 1.24.541s.52.794.52 1.299c0 1.173.08 2.28.24 3.32s.413 2.027.76 2.96c.133.293.16.593.08.899s-.24.593-.48.861l-4 4c1.147 2.347 2.773 4.573 4.88 6.68s4.373 3.787 6.799 5.04l4-4c.24-.24.52-.4.84-.48s.64-.053.96.08c.987.32 2.007.567 3.06.741s2.14.26 3.259.259c.507 0 .94.187 1.301.56s.54.827.539 1.36v6.12c0 .48-.173.893-.52 1.24s-.773.52-1.28.52zm-9.199-4.8c1.2.453 2.453.813 3.76 1.08s2.653.44 4.04.52v-3.44c-.827-.053-1.674-.147-2.541-.28s-1.727-.333-2.579-.6l-2.68 2.72zM28.8 16c0-3.573-1.24-6.6-3.72-9.08S19.574 3.2 16.001 3.2V0c2.213 0 4.293.42 6.239 1.261s3.64 1.98 5.08 3.419c1.44 1.44 2.58 3.133 3.42 5.08S32 13.787 31.999 16h-3.2zm-6.399 0c0-1.76-.627-3.267-1.88-4.52s-2.76-1.88-4.52-1.88V6.4c2.666 0 4.933.933 6.799 2.8s2.8 4.133 2.8 6.8h-3.2zM4.802 10.92l2.64-2.68c-.213-.773-.394-1.587-.541-2.44s-.247-1.72-.299-2.6h-3.36c.053 1.28.213 2.56.48 3.84s.627 2.573 1.08 3.88z"/>
    </symbol>
    <symbol id="icon-Vector-top" viewBox="0 0 54 32">
      <path d="m27.038 11.381.001.002L8.25 30.172a4.428 4.428 0 0 1-6.262-6.262l21.82-21.82a4.572 4.572 0 0 1 6.465 0l21.818 21.818a4.43 4.43 0 1 1-6.264 6.264L27.038 11.383c-.001-.001 0-.002.001-.002z"/>
    </symbol>
<symbol id="icon-Groups" viewBox="0 0 32 32">
<path fill="#4a5759" style="fill: var(--color1, #4a5759)" d="M25.263 16c0 5.116-4.147 9.263-9.263 9.263s-9.263-4.147-9.263-9.263c0-5.116 4.147-9.263 9.263-9.263s9.263 4.147 9.263 9.263z"></path>
<path fill="none" opacity="0.6" stroke="#4a5759" style="stroke: var(--color1, #4a5759)" stroke-linejoin="miter" stroke-linecap="butt" stroke-miterlimit="4" stroke-width="1.6842" d="M27.789 16c0 6.511-5.278 11.789-11.789 11.789s-11.789-5.278-11.789-11.789c0-6.511 5.278-11.789 11.789-11.789s11.789 5.278 11.789 11.789z"></path>
<path fill="none" opacity="0.2" stroke="#4a5759" style="stroke: var(--color1, #4a5759)" stroke-linejoin="miter" stroke-linecap="butt" stroke-miterlimit="4" stroke-width="1.6842" d="M31.158 16c0 8.371-6.786 15.158-15.158 15.158s-15.158-6.786-15.158-15.158c0-8.371 6.786-15.158 15.158-15.158s15.158 6.786 15.158 15.158z"></path>
</symbol>
    <symbol id="icon-x-twitter" viewBox="0 0 32 32">
      <path d="M23.814 3.797h4.142l-9.047 10.337 10.643 14.069h-8.331l-6.53-8.53-7.463 8.53H3.08l9.675-11.059L2.552 3.797h8.542l5.896 7.797 6.823-7.797zm-1.455 21.93h2.294L9.845 6.143H7.381l14.978 19.584z"/>
    </symbol>
    <symbol id="icon-ri_linkedin" viewBox="0 0 32 32">
      <path d="M9.33 6.482a2.592 2.592 0 1 1-5.185-.002 2.592 2.592 0 0 1 5.185.002zm.078 4.511H4.223v16.23h5.185v-16.23zm8.192 0h-5.159v16.23h5.107v-8.517c0-4.745 6.183-5.185 6.183 0v8.517h5.12v-10.28c0-7.998-9.152-7.7-11.304-3.772l.052-2.178z"/>
    </symbol>
    <symbol id="icon-Rectangle" viewBox="0 0 151 32">
      <path d="M0 5.486A5.486 5.486 0 0 1 5.486 0h145.371l-34.743 32H5.485a5.486 5.486 0 0 1-5.486-5.486V5.485z"/>
    </symbol>
    <symbol id="icon-Polygon" viewBox="0 0 55 32">
      <path d="M25.526 29.775a2.91 2.91 0 0 0 4.221 0L51.951 6.366c1.758-1.854.444-4.911-2.111-4.911H5.433c-2.555 0-3.869 3.057-2.111 4.911l22.204 23.409z"/>
    </symbol>
    <symbol id="icon-bxs" viewBox="0 0 32 32">
      <path d="M25.984 17.039c0.177-0.122 0.321-0.284 0.421-0.474s0.152-0.401 0.152-0.616-0.052-0.426-0.152-0.616c-0.1-0.19-0.244-0.353-0.421-0.474l-17.236-11.932c-0.199-0.138-0.432-0.219-0.673-0.234s-0.483 0.036-0.697 0.149c-0.214 0.112-0.394 0.281-0.519 0.489s-0.191 0.445-0.191 0.687v23.865c0.001 0.241 0.068 0.478 0.193 0.685s0.305 0.375 0.519 0.487c0.214 0.112 0.454 0.164 0.695 0.149s0.474-0.094 0.673-0.231l17.236-11.932z"></path>
    </symbol>
    <symbol id="icon-Ellipse" viewBox="0 0 32 32">
      <path d="M31.873 15.937c0 8.802-7.135 15.937-15.937 15.937s-15.937-7.135-15.937-15.937c0-8.802 7.135-15.937 15.937-15.937s15.937 7.135 15.937 15.937z"></path>
    </symbol>
<symbol id="icon-Group" viewBox="0 0 50 32">
<path d="M14.462 29.188c1.182-1.843-2.546-3.444-2.546-3.444-0.092 3.974 2.546 3.444 2.546 3.444z"></path>
<path d="M9.177 30.431c3.319 2.328 4.368-0.082 4.368-0.082-0.903-1.999-4.368 0.082-4.368 0.082z"></path>
<path d="M10.075 26.973c1.762-1.354-1.185-4.082-1.185-4.082-1.48 3.708 1.185 4.082 1.185 4.082z"></path>
<path d="M4.988 27.247c2.779 2.921 4.297 0.759 4.297 0.759-0.48-2.125-4.297-0.759-4.297-0.759z"></path>
<path d="M6.946 24.461c2.139-0.664 0.374-4.213 0.374-4.213-2.733 2.949-0.374 4.213-0.374 4.213z"></path>
<path d="M2.231 22.999c1.54 3.687 3.744 2.18 3.744 2.18 0.328-2.157-3.744-2.18-3.744-2.18z"></path>
<path d="M4.652 21.367c2.24-0.184 1.329-4.040 1.329-4.040-3.34 2.299-1.329 4.040-1.329 4.040z"></path>
<path d="M3.953 17.375c2.326 0.155 2.085-3.795 2.085-3.795-3.834 1.767-2.085 3.795-2.085 3.795z"></path>
<path d="M2.057 17.551c1.6-1.58-1.865-3.876-1.865-3.876-0.938 3.874 1.865 3.876 1.865 3.876z"></path>
<path d="M6.892 9.73c-4.173 0.735-3.034 3.134-3.034 3.134 2.207 0.74 3.034-3.134 3.034-3.134z"></path>
<path d="M2.434 12.945c1.665-1.519-1.705-3.95-1.705-3.95-1.095 3.839 1.705 3.95 1.705 3.95z"></path>
<path d="M4.677 9.222c2.004 1.161 3.628-2.467 3.628-2.467-4.246-0.097-3.628 2.467-3.628 2.467z"></path>
<path d="M3.337 8.708c1.947-1.159-0.841-4.213-0.841-4.213-1.876 3.55 0.841 4.213 0.841 4.213z"></path>
<path d="M10.354 4.108c-4.151-0.874-4.040 1.759-4.040 1.759 1.743 1.509 4.040-1.759 4.040-1.759z"></path>
<path d="M5.091 5.198c2.137-0.79-0.014-4.279-0.014-4.279-2.527 3.134 0.014 4.279 0.014 4.279z"></path>
<path d="M3.711 19.439c-2.31-7.313 2.63-14.82 3.834-16.498 2.473 0.427 2.95-2.941 2.95-2.941-3.511 0.229-3.403 2.18-3.3 2.728-1.114 1.568-2.055 3.245-2.809 5.003-1.261 2.955-2.467 7.4-1.071 11.829 0.087 0.263 0.184 0.542 0.287 0.811-0.618-1.256-3.123-1.828-3.123-1.828 0.659 3.924 3.153 2.933 3.153 2.933 0.118-0.275 0.141-0.58 0.065-0.869 2.044 4.974 7.153 8.803 15.205 11.392l0.13-0.379c-8.476-2.731-13.63-6.826-15.322-12.182z"></path>
<path d="M38.023 25.743c0 0-3.728 1.58-2.546 3.444-0.003 0 2.636 0.529 2.546-3.444z"></path>
<path d="M36.394 30.357c0 0 1.047 2.409 4.368 0.082-0.003-0.008-3.465-2.088-4.368-0.082z"></path>
<path d="M39.864 26.973c0 0 2.665-0.374 1.185-4.082 0 0-2.947 2.726-1.185 4.082z"></path>
<path d="M40.656 28.005c0 0 1.518 2.162 4.297-0.759-0.003 0-3.823-1.367-4.297 0.759z"></path>
<path d="M42.993 24.461c0 0 2.359-1.264-0.374-4.213 0-0.013-1.765 3.55 0.374 4.213z"></path>
<path d="M43.964 25.182c0 0 2.204 1.504 3.745-2.18 0-0.003-4.072 0.021-3.745 2.18z"></path>
<path d="M45.287 21.367c0 0 2.012-1.741-1.328-4.040 0 0-0.911 3.855 1.328 4.040z"></path>
<path d="M46.334 20.363c0.103-0.263 0.201-0.527 0.288-0.811 1.396-4.421 0.19-8.866-1.068-11.816-0.754-1.758-1.695-3.435-2.809-5.003 0.1-0.548 0.209-2.496-3.3-2.728 0 0 0.48 3.371 2.95 2.941 1.204 1.677 6.144 9.185 3.834 16.498-1.692 5.356-6.846 9.451-15.322 12.174l0.13 0.379c8.053-2.589 13.161-6.417 15.205-11.392-0.076 0.289-0.053 0.594 0.065 0.869 0 0 2.494 0.99 3.153-2.934 0-0.005-2.508 0.566-3.126 1.822z"></path>
<path d="M43.899 13.58c0 0-0.241 3.95 2.085 3.795 0.003 0 1.743-2.028-2.085-3.795z"></path>
<path d="M47.882 17.551c0 0 2.803 0 1.865-3.876 0 0-3.465 2.294-1.865 3.876z"></path>
<path d="M43.045 9.73c0 0 0.827 3.874 3.034 3.134 0 0 1.144-2.399-3.034-3.134z"></path>
<path d="M47.505 12.945c0 0 2.801-0.111 1.705-3.95 0 0.003-3.381 2.431-1.705 3.95z"></path>
<path d="M41.635 6.754c0 0 1.627 3.629 3.628 2.467 0 0 0.618-2.565-3.628-2.467z"></path>
<path d="M46.599 8.708c0 0 2.711-0.664 0.84-4.213 0 0.013-2.787 3.055-0.84 4.213z"></path>
<path d="M39.593 4.108c0 0 2.297 3.268 4.040 1.762-0.008-0.003 0.1-2.636-4.040-1.762z"></path>
<path d="M44.845 5.198c0 0 2.541-1.145 0.014-4.279 0.003 0-2.15 3.497-0.014 4.279z"></path>
</symbol>
  </defs>
</svg>
