<svg width="106" height="23" viewBox="0 0 106 23" fill="none" xmlns="http://www.w3.org/2000/svg">
<path d="M25.91 22H19.46L19.4 12.43L14.84 20.11H11.72L7.16 12.76V22H0.71V0.999999H6.53L13.37 12.19L20.03 0.999999H25.85L25.91 22ZM40.343 22.48C33.503 22.48 28.493 17.86 28.493 11.5C28.493 5.14 33.503 0.519999 40.343 0.519999C47.183 0.519999 52.193 5.14 52.193 11.5C52.193 17.86 47.183 22.48 40.343 22.48ZM40.343 16.75C42.953 16.75 45.053 14.77 45.053 11.5C45.053 8.23 42.953 6.25 40.343 6.25C37.733 6.25 35.633 8.23 35.633 11.5C35.633 14.77 37.733 16.75 40.343 16.75ZM69.481 0.999999H76.441L67.561 22H60.601L51.721 0.999999H59.341L64.351 13.27L69.481 0.999999ZM77.1455 22V0.999999H84.2255V22H77.1455ZM94.5938 16.66H105.094V22H87.6338V0.999999H104.704V6.34H94.5938V8.8H103.474V13.9H94.5938V16.66Z" fill="#313131"/>
</svg>
